<mxfile host="app.diagrams.net" modified="2023-06-01T19:24:39.002Z" agent="Mozilla/5.0 (Windows NT 10.0; Win64; x64) AppleWebKit/537.36 (KHTML, like Gecko) Chrome/113.0.0.0 Safari/537.36" etag="QtGoHmTqAA8miIPTRahM" version="21.3.6" type="github">
  <diagram id="C5RBs43oDa-KdzZeNtuy" name="Page-1">
    <mxGraphModel dx="1050" dy="573" grid="1" gridSize="10" guides="1" tooltips="1" connect="1" arrows="1" fold="1" page="1" pageScale="1" pageWidth="827" pageHeight="1169" math="0" shadow="0">
      <root>
        <mxCell id="WIyWlLk6GJQsqaUBKTNV-0" />
        <mxCell id="WIyWlLk6GJQsqaUBKTNV-1" parent="WIyWlLk6GJQsqaUBKTNV-0" />
        <mxCell id="78sSkmQn_fpPJuvywpQb-5" style="edgeStyle=orthogonalEdgeStyle;rounded=0;orthogonalLoop=1;jettySize=auto;html=1;exitX=1;exitY=0.5;exitDx=0;exitDy=0;entryX=0;entryY=0.5;entryDx=0;entryDy=0;" edge="1" parent="WIyWlLk6GJQsqaUBKTNV-1" source="WIyWlLk6GJQsqaUBKTNV-3" target="78sSkmQn_fpPJuvywpQb-2">
          <mxGeometry relative="1" as="geometry" />
        </mxCell>
        <mxCell id="WIyWlLk6GJQsqaUBKTNV-3" value="Inicio" style="rounded=1;whiteSpace=wrap;html=1;fontSize=12;glass=0;strokeWidth=1;shadow=0;" parent="WIyWlLk6GJQsqaUBKTNV-1" vertex="1">
          <mxGeometry x="30" y="80" width="120" height="40" as="geometry" />
        </mxCell>
        <mxCell id="WIyWlLk6GJQsqaUBKTNV-8" value="No" style="rounded=0;html=1;jettySize=auto;orthogonalLoop=1;fontSize=11;endArrow=block;endFill=0;endSize=8;strokeWidth=1;shadow=0;labelBackgroundColor=none;edgeStyle=orthogonalEdgeStyle;" parent="WIyWlLk6GJQsqaUBKTNV-1" target="WIyWlLk6GJQsqaUBKTNV-11" edge="1">
          <mxGeometry x="0.3333" y="20" relative="1" as="geometry">
            <mxPoint as="offset" />
            <mxPoint x="220" y="370" as="sourcePoint" />
          </mxGeometry>
        </mxCell>
        <mxCell id="78sSkmQn_fpPJuvywpQb-0" value="Fin" style="rounded=1;whiteSpace=wrap;html=1;" vertex="1" parent="WIyWlLk6GJQsqaUBKTNV-1">
          <mxGeometry x="280" y="630" width="120" height="60" as="geometry" />
        </mxCell>
        <mxCell id="78sSkmQn_fpPJuvywpQb-29" style="edgeStyle=orthogonalEdgeStyle;rounded=0;orthogonalLoop=1;jettySize=auto;html=1;exitX=0.5;exitY=1;exitDx=0;exitDy=0;entryX=0.5;entryY=0;entryDx=0;entryDy=0;" edge="1" parent="WIyWlLk6GJQsqaUBKTNV-1" source="78sSkmQn_fpPJuvywpQb-2" target="78sSkmQn_fpPJuvywpQb-28">
          <mxGeometry relative="1" as="geometry" />
        </mxCell>
        <mxCell id="78sSkmQn_fpPJuvywpQb-2" value="Iniciar sesión" style="rounded=0;whiteSpace=wrap;html=1;" vertex="1" parent="WIyWlLk6GJQsqaUBKTNV-1">
          <mxGeometry x="270" y="70" width="120" height="60" as="geometry" />
        </mxCell>
        <mxCell id="78sSkmQn_fpPJuvywpQb-8" value="" style="edgeStyle=orthogonalEdgeStyle;rounded=0;orthogonalLoop=1;jettySize=auto;html=1;" edge="1" parent="WIyWlLk6GJQsqaUBKTNV-1" source="78sSkmQn_fpPJuvywpQb-3" target="78sSkmQn_fpPJuvywpQb-7">
          <mxGeometry relative="1" as="geometry" />
        </mxCell>
        <mxCell id="78sSkmQn_fpPJuvywpQb-16" value="" style="edgeStyle=orthogonalEdgeStyle;rounded=0;orthogonalLoop=1;jettySize=auto;html=1;" edge="1" parent="WIyWlLk6GJQsqaUBKTNV-1" source="78sSkmQn_fpPJuvywpQb-3" target="78sSkmQn_fpPJuvywpQb-15">
          <mxGeometry relative="1" as="geometry" />
        </mxCell>
        <mxCell id="78sSkmQn_fpPJuvywpQb-3" value="Verificar credenciales" style="rhombus;whiteSpace=wrap;html=1;rounded=0;" vertex="1" parent="WIyWlLk6GJQsqaUBKTNV-1">
          <mxGeometry x="280" y="330" width="100" height="100" as="geometry" />
        </mxCell>
        <mxCell id="78sSkmQn_fpPJuvywpQb-11" style="edgeStyle=orthogonalEdgeStyle;rounded=0;orthogonalLoop=1;jettySize=auto;html=1;exitX=0;exitY=0.5;exitDx=0;exitDy=0;entryX=0;entryY=0.5;entryDx=0;entryDy=0;" edge="1" parent="WIyWlLk6GJQsqaUBKTNV-1" source="78sSkmQn_fpPJuvywpQb-7" target="78sSkmQn_fpPJuvywpQb-0">
          <mxGeometry relative="1" as="geometry" />
        </mxCell>
        <mxCell id="78sSkmQn_fpPJuvywpQb-7" value="Credenciales invalidas" style="whiteSpace=wrap;html=1;rounded=0;" vertex="1" parent="WIyWlLk6GJQsqaUBKTNV-1">
          <mxGeometry x="110" y="350" width="120" height="60" as="geometry" />
        </mxCell>
        <mxCell id="78sSkmQn_fpPJuvywpQb-13" style="edgeStyle=orthogonalEdgeStyle;rounded=0;orthogonalLoop=1;jettySize=auto;html=1;exitX=0.5;exitY=1;exitDx=0;exitDy=0;" edge="1" parent="WIyWlLk6GJQsqaUBKTNV-1" source="78sSkmQn_fpPJuvywpQb-3" target="78sSkmQn_fpPJuvywpQb-3">
          <mxGeometry relative="1" as="geometry" />
        </mxCell>
        <mxCell id="78sSkmQn_fpPJuvywpQb-18" value="" style="edgeStyle=orthogonalEdgeStyle;rounded=0;orthogonalLoop=1;jettySize=auto;html=1;" edge="1" parent="WIyWlLk6GJQsqaUBKTNV-1" source="78sSkmQn_fpPJuvywpQb-15" target="78sSkmQn_fpPJuvywpQb-17">
          <mxGeometry relative="1" as="geometry" />
        </mxCell>
        <mxCell id="78sSkmQn_fpPJuvywpQb-15" value="Credenciales válidas" style="whiteSpace=wrap;html=1;rounded=0;" vertex="1" parent="WIyWlLk6GJQsqaUBKTNV-1">
          <mxGeometry x="430" y="350" width="120" height="60" as="geometry" />
        </mxCell>
        <mxCell id="78sSkmQn_fpPJuvywpQb-25" value="" style="edgeStyle=orthogonalEdgeStyle;rounded=0;orthogonalLoop=1;jettySize=auto;html=1;" edge="1" parent="WIyWlLk6GJQsqaUBKTNV-1" source="78sSkmQn_fpPJuvywpQb-17" target="78sSkmQn_fpPJuvywpQb-24">
          <mxGeometry relative="1" as="geometry" />
        </mxCell>
        <mxCell id="78sSkmQn_fpPJuvywpQb-17" value="Mostrar menú principal" style="whiteSpace=wrap;html=1;rounded=0;" vertex="1" parent="WIyWlLk6GJQsqaUBKTNV-1">
          <mxGeometry x="630" y="350" width="120" height="60" as="geometry" />
        </mxCell>
        <mxCell id="78sSkmQn_fpPJuvywpQb-21" value="No" style="text;html=1;strokeColor=none;fillColor=none;align=center;verticalAlign=middle;whiteSpace=wrap;rounded=0;" vertex="1" parent="WIyWlLk6GJQsqaUBKTNV-1">
          <mxGeometry x="250" y="340" width="60" height="30" as="geometry" />
        </mxCell>
        <mxCell id="78sSkmQn_fpPJuvywpQb-22" value="Si" style="text;html=1;strokeColor=none;fillColor=none;align=center;verticalAlign=middle;whiteSpace=wrap;rounded=0;" vertex="1" parent="WIyWlLk6GJQsqaUBKTNV-1">
          <mxGeometry x="354" y="340" width="60" height="30" as="geometry" />
        </mxCell>
        <mxCell id="78sSkmQn_fpPJuvywpQb-32" value="" style="edgeStyle=orthogonalEdgeStyle;rounded=0;orthogonalLoop=1;jettySize=auto;html=1;" edge="1" parent="WIyWlLk6GJQsqaUBKTNV-1" source="78sSkmQn_fpPJuvywpQb-24" target="78sSkmQn_fpPJuvywpQb-31">
          <mxGeometry relative="1" as="geometry" />
        </mxCell>
        <mxCell id="78sSkmQn_fpPJuvywpQb-36" value="" style="edgeStyle=orthogonalEdgeStyle;rounded=0;orthogonalLoop=1;jettySize=auto;html=1;" edge="1" parent="WIyWlLk6GJQsqaUBKTNV-1" source="78sSkmQn_fpPJuvywpQb-24" target="78sSkmQn_fpPJuvywpQb-35">
          <mxGeometry relative="1" as="geometry" />
        </mxCell>
        <mxCell id="78sSkmQn_fpPJuvywpQb-24" value="Acceder a administraciones" style="rhombus;whiteSpace=wrap;html=1;rounded=0;" vertex="1" parent="WIyWlLk6GJQsqaUBKTNV-1">
          <mxGeometry x="630" y="460" width="120" height="120" as="geometry" />
        </mxCell>
        <mxCell id="78sSkmQn_fpPJuvywpQb-26" value="No" style="text;html=1;strokeColor=none;fillColor=none;align=center;verticalAlign=middle;whiteSpace=wrap;rounded=0;" vertex="1" parent="WIyWlLk6GJQsqaUBKTNV-1">
          <mxGeometry x="580" y="480" width="60" height="30" as="geometry" />
        </mxCell>
        <mxCell id="78sSkmQn_fpPJuvywpQb-27" value="Si" style="text;html=1;strokeColor=none;fillColor=none;align=center;verticalAlign=middle;whiteSpace=wrap;rounded=0;" vertex="1" parent="WIyWlLk6GJQsqaUBKTNV-1">
          <mxGeometry x="704" y="570" width="60" height="30" as="geometry" />
        </mxCell>
        <mxCell id="78sSkmQn_fpPJuvywpQb-30" style="edgeStyle=orthogonalEdgeStyle;rounded=0;orthogonalLoop=1;jettySize=auto;html=1;exitX=0.5;exitY=1;exitDx=0;exitDy=0;entryX=0.5;entryY=0;entryDx=0;entryDy=0;" edge="1" parent="WIyWlLk6GJQsqaUBKTNV-1" source="78sSkmQn_fpPJuvywpQb-28" target="78sSkmQn_fpPJuvywpQb-3">
          <mxGeometry relative="1" as="geometry" />
        </mxCell>
        <mxCell id="78sSkmQn_fpPJuvywpQb-28" value="Ingresar credenciales" style="shape=parallelogram;perimeter=parallelogramPerimeter;whiteSpace=wrap;html=1;fixedSize=1;" vertex="1" parent="WIyWlLk6GJQsqaUBKTNV-1">
          <mxGeometry x="250" y="200" width="160" height="80" as="geometry" />
        </mxCell>
        <mxCell id="78sSkmQn_fpPJuvywpQb-34" style="edgeStyle=orthogonalEdgeStyle;rounded=0;orthogonalLoop=1;jettySize=auto;html=1;exitX=0;exitY=0.5;exitDx=0;exitDy=0;" edge="1" parent="WIyWlLk6GJQsqaUBKTNV-1" source="78sSkmQn_fpPJuvywpQb-31" target="78sSkmQn_fpPJuvywpQb-0">
          <mxGeometry relative="1" as="geometry" />
        </mxCell>
        <mxCell id="78sSkmQn_fpPJuvywpQb-31" value="Cerrar sesión" style="whiteSpace=wrap;html=1;rounded=0;" vertex="1" parent="WIyWlLk6GJQsqaUBKTNV-1">
          <mxGeometry x="430" y="490" width="120" height="60" as="geometry" />
        </mxCell>
        <mxCell id="78sSkmQn_fpPJuvywpQb-39" style="edgeStyle=orthogonalEdgeStyle;rounded=0;orthogonalLoop=1;jettySize=auto;html=1;exitX=0;exitY=0.5;exitDx=0;exitDy=0;entryX=0.5;entryY=1;entryDx=0;entryDy=0;" edge="1" parent="WIyWlLk6GJQsqaUBKTNV-1" source="78sSkmQn_fpPJuvywpQb-35" target="78sSkmQn_fpPJuvywpQb-31">
          <mxGeometry relative="1" as="geometry" />
        </mxCell>
        <mxCell id="78sSkmQn_fpPJuvywpQb-35" value="Gestionar almacens" style="whiteSpace=wrap;html=1;rounded=0;" vertex="1" parent="WIyWlLk6GJQsqaUBKTNV-1">
          <mxGeometry x="630" y="630" width="120" height="60" as="geometry" />
        </mxCell>
      </root>
    </mxGraphModel>
  </diagram>
</mxfile>
